:SAMPLES-PER-SECOND 30
:FULLY-SPECIFIED
:DEGREES
1515
root  -36.1443 38.1664 2.58421 -50.9937 -86.0331 42.9428
RightUpLeg  -7.79682 -8.19342 -1.30718
RightLeg  173.578 6.90066 177.276
RightFoot  164.613 -31.9352 1.93598
RightToes  -6.98493e-010 0 -3.6325e-017
Spine  7.72957 -2.64493 -0.818942
Spine1  8.22056 -3.08819 -0.381664
HEad  63.4947 18.527 -167.482
LeftShoulder1  0.466595 2.11983 -27.6048
LeftArm  -0.877037 -0.553056 -45.092
LeftForeArm  20.8164 -13.1446 -7.4029
LeftHand  -0.0178691 5.82895 2.70768
RightShoulder  -0.187572 -4.07617 24.9869
RightArm  9.10796 10.3395 42.2084
RightForeArm  4.30155 5.4338 6.03189
RightHand  -0.1718 1.41047 -3.07011
LeftUpLeg  9.20807 2.38421 -0.21152
LeftLeg  36.4406 -6.97538 -5.15141
LeftFoot  -17.9132 -0.210266 -5.79702
LeftToes  7.91257e-010 -1.64976e-010 -3.02228e-011
1516
root  -34.8275 38.0384 2.68137 -42.2133 -84.9492 34.3052
RightUpLeg  -9.25506 -8.68315 -1.79256
RightLeg  175.137 25.4282 176.599
RightFoot  163.396 -14.6934 1.46466
RightToes  -6.98493e-010 0 -3.6325e-017
Spine  7.51755 -2.82582 -1.93599
Spine1  8.24753 -3.2173 -1.03634
HEad  64.4283 20.1966 -165.718
LeftShoulder1  0.565243 1.77165 -26.4204
LeftArm  0.792038 -6.09079 -45.6984
LeftForeArm  18.4732 -15.8209 -6.38212
LeftHand  -0.00751527 6.2788 2.86547
RightShoulder  -0.252533 -4.27068 25.563
RightArm  8.18065 13.9151 43.8166
RightForeArm  3.40952 6.81706 5.81478
RightHand  -0.200867 1.69612 -3.46681
LeftUpLeg  10.3591 0.789072 -1.61189
LeftLeg  30.822 -6.11911 -3.56329
LeftFoot  -23.1921 -0.070708 -1.97358
LeftToes  7.91257e-010 -1.64976e-010 -3.02228e-011
1517
root  -33.3527 37.9687 2.77225 -42.2949 -83.3354 34.3949
RightUpLeg  -10.5881 -9.78914 -3.09567
RightLeg  174.767 49.1376 174.665
RightFoot  161.633 8.2428 0.326198
RightToes  -6.98493e-010 0 -3.6325e-017
Spine  7.92452 -2.64613 -4.48989
Spine1  8.79763 -3.27715 -0.426071
HEad  66.498 21.8136 -163.745
LeftShoulder1  0.642699 1.53489 -26.4831
LeftArm  0.861757 -12.0305 -45.9525
LeftForeArm  16.9848 -18.4632 -5.14459
LeftHand  -0.0419034 4.84165 3.2066
RightShoulder  -0.208263 -4.13931 25.2164
RightArm  7.34207 17.3228 46.2845
RightForeArm  3.43455 8.00212 5.54857
RightHand  -0.240892 2.98147 -3.54297
LeftUpLeg  9.34139 0.823052 -3.41249
LeftLeg  27.991 -4.12629 -2.0031
LeftFoot  -24.6996 0.413982 2.32197
LeftToes  7.91257e-010 -1.64976e-010 -3.02228e-011
1518
root  -31.8014 37.9782 2.82958 -45.9523 -81.7367 38.2274
RightUpLeg  -12.1378 -10.8427 -4.71616
RightLeg  -156.702 78.4522 -157.362
RightFoot  157.146 39.2579 -3.57997
RightToes  -6.98493e-010 0 -3.6325e-017
Spine  9.16461 -2.38627 -6.46309
Spine1  8.50986 -2.82131 -1.06759
HEad  69.51 23.2009 -160.561
LeftShoulder1  0.747315 1.16534 -25.755
LeftArm  1.21756 -16.5428 -46.0702
LeftForeArm  13.8712 -21.8415 -4.37341
LeftHand  -0.0891008 3.69447 5.12918
RightShoulder  -0.144138 -3.93418 24.9917
RightArm  7.76491 19.9431 49.2499
RightForeArm  2.62348 8.80956 5.68109
RightHand  -0.35636 4.1402 -4.6194
LeftUpLeg  7.09389 0.788162 -5.57708
LeftLeg  26.8233 -2.74186 -1.13165
LeftFoot  -24.3934 0.728193 5.07947
LeftToes  7.91257e-010 -1.64976e-010 -3.02228e-011
1519
root  -30.3895 38.0584 2.85339 -49.5987 -80.9342 42.2679
RightUpLeg  -13.6357 -11.0715 -5.93173
RightLeg  -1.46715 69.7104 -1.35326
RightFoot  141.869 69.6289 -18.6492
RightToes  -6.98493e-010 0 -3.6325e-017
Spine  9.227 -2.03052 -7.49977
Spine1  8.84518 -2.01446 -2.39644
HEad  71.6417 24.4801 -158.754
LeftShoulder1  0.812432 0.903636 -25.038
LeftArm  -2.25207 -19.4817 -46.5159
LeftForeArm  15.4315 -25.1252 -4.51714
LeftHand  -0.132764 2.98164 5.85574
RightShoulder  -0.0148619 -3.52846 23.7739
RightArm  7.99497 21.5013 53.4344
RightForeArm  3.31869 9.36729 5.58548
RightHand  -0.391747 4.3663 -4.94061
LeftUpLeg  4.20913 1.86794 -6.48526
LeftLeg  27.0341 -3.94956 -1.81845
LeftFoot  -23.0478 0.665938 5.13813
LeftToes  7.91257e-010 -1.64976e-010 -3.02228e-011
1520
root  -29.1046 38.201 2.88399 -53.7013 -80.7231 46.7113
RightUpLeg  -14.5883 -10.971 -6.50057
RightLeg  -7.39175 56.7841 -6.94768
RightFoot  123.428 78.8443 -37.4281
RightToes  -6.98493e-010 0 -3.6325e-017
Spine  9.47552 -1.82295 -6.99382
Spine1  8.23247 -1.01971 -4.84283
HEad  72.1295 26.0464 -159.099
LeftShoulder1  0.883476 0.626568 -24.4588
LeftArm  -5.12992 -19.9736 -46.3671
LeftForeArm  17.1585 -28.5274 -5.2388
LeftHand  -0.21999 1.58485 6.54624
RightShoulder  -0.0112731 -3.51304 24.0342
RightArm  9.80395 23.0644 56.9923
RightForeArm  4.49434 8.79141 6.1213
RightHand  -0.383213 4.01836 -4.99195
LeftUpLeg  1.52486 3.36442 -7.06164
LeftLeg  27.1747 -4.95683 -2.38658
LeftFoot  -20.753 0.549388 5.15318
LeftToes  7.91257e-010 -1.64976e-010 -3.02228e-011
1521
root  -27.9042 38.4363 2.98579 -57.6648 -81.9449 50.8128
RightUpLeg  -14.4608 -10.6972 -5.79451
RightLeg  -4.26127 68.1872 -3.99445
RightFoot  154.155 65.8643 -8.32275
RightToes  -6.98493e-010 0 -3.6325e-017
Spine  9.93915 -1.67427 -4.44571
Spine1  7.30554 -0.102717 -7.47654
HEad  71.1877 26.7146 -162.103
LeftShoulder1  0.818337 0.884635 -25.0301
LeftArm  -6.04424 -18.5625 -45.4754
LeftForeArm  17.4141 -32.4074 -6.16006
LeftHand  -0.279149 1.39605 8.02227
RightShoulder  0.0797415 -3.2088 23.2525
RightArm  12.2841 23.9037 61.4551
RightForeArm  5.30422 7.32764 6.96636
RightHand  -0.41597 4.04299 -5.42561
LeftUpLeg  -0.27788 3.54381 -7.07587
LeftLeg  26.1975 -4.0716 -1.77503
LeftFoot  -18.4115 0.424857 5.07167
LeftToes  7.91257e-010 -1.64976e-010 -3.02228e-011
1522
root  -26.7788 38.6524 3.04016 -64.7056 -83.4834 57.3195
RightUpLeg  -13.4201 -8.43835 -5.46477
RightLeg  9.77066 70.6695 9.85599
RightFoot  159.008 60.7918 -4.80649
RightToes  -6.98493e-010 0 -3.6325e-017
Spine  10.5783 -1.25149 -2.61352
Spine1  7.08886 0.585187 -8.76138
HEad  70.0749 26.9649 -165.293
LeftShoulder1  0.772619 1.07134 -25.5555
LeftArm  -7.35445 -15.3622 -45.0512
LeftForeArm  18.3594 -36.1677 -7.10091
LeftHand  -0.290728 1.51087 8.6091
RightShoulder  0.0595584 -3.27415 22.9118
RightArm  16.4314 25.4212 65.57
RightForeArm  7.09082 5.76374 8.3596
RightHand  -0.293846 2.81483 -4.12301
LeftUpLeg  -0.995679 4.6051 -6.35079
LeftLeg  24.8753 -3.79965 -1.50981
LeftFoot  -16.2141 0.311829 5.06968
LeftToes  7.91257e-010 -1.64976e-010 -3.02228e-011
1523
root  -25.7759 38.7767 3.00553 -73.5286 -84.152 65.6436
RightUpLeg  -12.8385 -3.98296 -6.42486
RightLeg  23.8929 60.1509 22.7359
RightFoot  160.215 66.2737 -4.73621
RightToes  -6.98493e-010 0 -3.6325e-017
Spine  10.2386 -0.765226 -3.3515
Spine1  7.62893 0.678343 -8.26336
HEad  68.5695 26.3153 -167.904
LeftShoulder1  0.752307 1.1163 -25.2965
LeftArm  -8.7151 -10.5138 -45.3797
LeftForeArm  19.3718 -39.3623 -7.95752
LeftHand  -0.253934 2.0756 8.70057
RightShoulder  0.0678946 -3.2437 22.6941
RightArm  21.0695 26.2758 69.26
RightForeArm  11.6241 5.52598 9.79113
RightHand  0.00524492 1.04851 -0.147984
LeftUpLeg  -1.58203 6.03381 -5.9504
LeftLeg  23.7083 -4.02829 -1.67763
LeftFoot  -14.2162 0.223823 5.46617
LeftToes  7.91257e-010 -1.64976e-010 -3.02228e-011
1524
root  -24.777 38.7684 2.93393 -74.5181 -83.9612 66.4615
RightUpLeg  -12.494 -3.45026 -6.97328
RightLeg  32.2607 47.8359 26.7127
RightFoot  157.911 75.8894 -7.62013
RightToes  -6.98493e-010 0 -3.6325e-017
Spine  9.98065 -0.569287 -5.00868
Spine1  7.56718 0.140454 -7.10141
HEad  66.3863 25.9714 -170.049
LeftShoulder1  0.670982 1.40139 -25.7293
LeftArm  -8.14831 -5.79725 -45.0621
LeftForeArm  18.8567 -40.7018 -8.40992
LeftHand  -0.298815 1.35295 8.51341
RightShoulder  0.109506 -3.0992 22.5151
RightArm  26.9697 25.1639 72.296
RightForeArm  14.3661 7.49449 10.8134
RightHand  -0.048252 1.27698 -0.963124
LeftUpLeg  -2.99962 6.26232 -6.09583
LeftLeg  23.5015 -4.29151 -1.94435
LeftFoot  -12.6295 0.135274 5.29696
LeftToes  7.91257e-010 -1.64976e-010 -3.02228e-011
1525
root  -23.7804 38.6626 2.83376 -75.4645 -83.4429 67.2691
RightUpLeg  -11.5948 -2.60449 -7.86857
RightLeg  37.9956 35.8143 26.0592
RightFoot  139.071 85.3047 -26.9738
RightToes  -6.98493e-010 0 -3.6325e-017
Spine  9.8205 -0.135077 -6.56532
Spine1  7.41966 -0.0522309 -6.53524
HEad  64.3458 26.436 -171.09
LeftShoulder1  0.538933 1.8539 -26.4725
LeftArm  -5.34601 -2.13615 -44.3117
LeftForeArm  17.337 -40.694 -8.5088
LeftHand  -0.301217 1.58496 9.08781
RightShoulder  0.0486241 -3.31127 23.3189
RightArm  35.0176 22.2791 73.6663
RightForeArm  13.135 12.5586 9.75875
RightHand  -0.00533624 1.05809 -0.20804
LeftUpLeg  -4.77533 6.77253 -6.36354
LeftLeg  23.9716 -4.68475 -2.64455
LeftFoot  -11.3865 0.0708374 5.2287
LeftToes  7.91257e-010 -1.64976e-010 -3.02228e-011
1526
root  -22.7745 38.5203 2.73729 -75.4437 -82.7528 66.8644
RightUpLeg  -9.57304 -2.31001 -8.9496
RightLeg  43.1212 26.29 23.7509
RightFoot  13.5309 85.6665 -152.967
RightToes  -6.98493e-010 0 -3.6325e-017
Spine  9.18211 0.399085 -7.22645
Spine1  8.88871 0.149521 -6.80109
HEad  63.1393 27.2645 -171.184
LeftShoulder1  0.429367 2.21508 -27.1765
LeftArm  -1.64401 0.141099 -43.6303
LeftForeArm  16.0264 -39.2745 -8.14979
LeftHand  -0.337887 0.918722 8.72258
RightShoulder  -0.0948662 -3.78448 24.6432
RightArm  43.3052 19.0086 73.7794
RightForeArm  7.55437 18.2888 6.92037
RightHand  0.0570142 1.64414 0.816235
LeftUpLeg  -6.29822 6.73969 -6.97579
LeftLeg  24.2969 -4.65044 -2.90548
LeftFoot  -10.1416 0.00913148 4.94287
LeftToes  7.91257e-010 -1.64976e-010 -3.02228e-011
1527
root  -21.7415 38.3481 2.66348 -74.5517 -81.8753 65.7744
RightUpLeg  -7.01984 -2.43497 -10.1476
RightLeg  46.9085 18.7867 20.1273
RightFoot  -8.92869 77.1828 -175.516
RightToes  -6.98493e-010 0 -3.6325e-017
Spine  9.08181 0.93224 -7.57157
Spine1  9.48642 0.423246 -7.08335
HEad  62.2005 28.3358 -170.946
LeftShoulder1  0.298175 2.63645 -28.2317
LeftArm  2.56713 2.20946 -42.743
LeftForeArm  14.5217 -36.5773 -7.44929
LeftHand  -0.228726 2.05187 7.75879
RightShoulder  -0.187014 -4.06599 25.5111
RightArm  48.2213 15.5303 73.0035
RightForeArm  2.37747 22.9597 4.94954
RightHand  -0.010679 2.63968 -0.355949
LeftUpLeg  -8.11051 6.41904 -7.85171
LeftLeg  24.6625 -4.57166 -3.1488
LeftFoot  -8.69927 -0.0564327 4.71635
LeftToes  7.91257e-010 -1.64976e-010 -3.02228e-011
1528
root  -20.7043 38.2282 2.61453 -78.4782 -81.5411 69.1067
RightUpLeg  -3.33959 -1.521 -10.7022
RightLeg  51.3091 19.3869 23.828
RightFoot  -2.52426 79.8779 -169.308
RightToes  -6.98493e-010 0 -3.6325e-017
Spine  8.85016 1.65614 -6.07762
Spine1  10.8852 1.50637 -8.7752
HEad  61.56 29.3048 -170.557
LeftShoulder1  0.218115 2.87793 -28.6894
LeftArm  6.36846 3.77106 -42.9691
LeftForeArm  13.3151 -32.0368 -6.25744
LeftHand  -0.127662 3.43526 6.59555
RightShoulder  -0.227025 -4.18121 26.0029
RightArm  49.8432 13.6782 72.113
RightForeArm  2.80353 25.6656 5.31899
RightHand  -0.018894 3.42605 -0.520327
LeftUpLeg  -9.15521 6.18155 -8.3142
LeftLeg  24.3974 -3.97495 -3.08075
LeftFoot  -7.01036 -0.120514 4.31527
LeftToes  7.91257e-010 -1.64976e-010 -3.02228e-011
1529
root  -19.6657 38.1394 2.58961 -83.6716 -81.5345 73.7744
RightUpLeg  0.839939 -0.275811 -10.6946
RightLeg  54.8914 23.8475 31.5802
RightFoot  8.42849 86.5982 -158.542
RightToes  -6.98493e-010 0 -3.6325e-017
Spine  8.95605 2.23634 -4.17268
Spine1  11.3135 2.52782 -10.1262
HEad  60.4705 30.2651 -171.609
LeftShoulder1  0.227525 2.84696 -28.5352
LeftArm  9.25451 5.7903 -43.8994
LeftForeArm  11.4597 -25.2554 -5.13895
LeftHand  -0.0451854 4.72564 4.57271
RightShoulder  -0.208099 -4.12437 25.8851
RightArm  53.1649 12.9174 71.6498
RightForeArm  3.22573 26.4133 5.50813
RightHand  0.140383 4.01617 1.4699
LeftUpLeg  -10.152 5.73884 -8.6096
LeftLeg  23.7959 -2.93714 -2.54768
LeftFoot  -5.17192 -0.16987 3.72179
LeftToes  7.91257e-010 -1.64976e-010 -3.02228e-011
